<svg width="48" height="48" viewBox="0 0 48 48" fill="none" xmlns="http://www.w3.org/2000/svg">
<g id="icon chat" opacity="0.2">
<path id="Union" fill-rule="evenodd" clip-rule="evenodd" d="M26.1509 8C29.3829 8 32.0031 10.5788 32.0031 13.76V14L20.8528 14C16.5462 14 13.0006 17.4444 13.0006 21.76V30L7.07454 30L4.8994 30L4.88358 29.9998L4.87357 29.9994C4.8632 29.9998 4.85278 30 4.84229 30C4.45909 30 4.14844 29.7293 4.14844 29.3953C4.14844 29.2208 4.24392 29.073 4.36132 28.9531C4.39353 28.9202 4.40854 28.9063 4.43275 28.8846C5.6258 27.8143 7.07454 25.9624 7.07454 23.28V13.76C7.07454 10.5789 9.69466 8.00002 12.9268 8.00002L26.1509 8ZM15.1484 21.76C15.1484 18.5788 17.7686 16 21.0007 16L34.2248 16C37.4569 16 40.077 18.5789 40.077 21.76V31.28C40.077 33.9624 41.5257 35.8143 42.7188 36.8846C42.743 36.9063 42.758 36.9202 42.7902 36.9531C42.9076 37.073 43.0031 37.2208 43.0031 37.3953C43.0031 37.7293 42.6924 38 42.3092 38C42.2987 38 42.2883 37.9998 42.2779 37.9994L42.2679 37.9998L42.2521 38L40.077 38L21.0007 38C17.7686 38 15.1484 35.4212 15.1484 32.24V21.76Z" fill="white"/>
</g>
</svg>
