<svg width="36" height="37" viewBox="0 0 36 37" fill="none" xmlns="http://www.w3.org/2000/svg">
<g id="icon_profile">
<circle id="Ellipse 138" cx="13.0927" cy="11.9843" r="4.90909" stroke="white" stroke-width="2.45455"/>
<path id="Ellipse 144" d="M21.2738 29.1652C21.2738 26.9953 20.4118 24.9142 18.8774 23.3798C17.343 21.8454 15.2619 20.9834 13.092 20.9834C10.922 20.9834 8.84094 21.8454 7.30656 23.3798C5.77217 24.9142 4.91016 26.9953 4.91016 29.1652" stroke="white" stroke-width="2.45455" stroke-linecap="round"/>
<path id="Ellipse 145" opacity="0.5" d="M31.9096 26.7107C31.9096 25.1917 31.3062 23.7349 30.2321 22.6609C29.158 21.5868 27.7013 20.9834 26.1823 20.9834C25.2072 20.9834 24.2577 21.2321 23.4187 21.6943C23.1597 21.837 22.9112 22 22.6758 22.1823" stroke="white" stroke-width="2.45455" stroke-linecap="round"/>
<circle id="Ellipse 141" opacity="0.5" cx="25.7738" cy="14.847" r="2.86364" stroke="white" stroke-width="2.45455"/>
</g>
</svg>
