<svg width="48" height="49" viewBox="0 0 48 49" fill="none" xmlns="http://www.w3.org/2000/svg">
<g id="icon_chat">
<path id="Union" fill-rule="evenodd" clip-rule="evenodd" d="M16 22.2893C16 19.1081 18.6261 16.5293 21.8655 16.5293L34.2017 16.5293C37.4412 16.5293 40.0672 19.1082 40.0672 22.2893V31.8093C40.0672 34.4917 41.5193 36.3436 42.715 37.4139C42.7393 37.4356 42.7543 37.4495 42.7866 37.4824C42.9043 37.6023 43 37.7501 43 37.9245C43 38.2585 42.6886 38.5293 42.3046 38.5293C42.2941 38.5293 42.2836 38.5291 42.2732 38.5287L42.2632 38.529L42.2473 38.5292L40.0672 38.5293L21.8655 38.5293C18.6261 38.5293 16 35.9504 16 32.7693V22.2893Z" stroke="#5B6873" stroke-width="3"/>
<path id="Union_2" d="M32 16.0275C32 12.9909 29.4603 10.5293 26.3273 10.5293L13.509 10.5293C10.3761 10.5293 7.83632 12.9909 7.83632 16.0275V25.1148C7.83632 27.6752 6.43203 29.443 5.27559 30.4646C5.25212 30.4853 5.23758 30.4986 5.20635 30.53C5.09255 30.6445 5 30.7855 5 30.952C5 31.2708 5.30112 31.5293 5.67257 31.5293C5.68273 31.5293 5.69283 31.5291 5.70289 31.5287L5.71258 31.529L5.72792 31.5292L7.83632 31.5293L15.6071 31.5293" stroke="#5B6873" stroke-width="3"/>
</g>
</svg>
