<svg width="36" height="36" viewBox="0 0 36 36" fill="none" xmlns="http://www.w3.org/2000/svg">
<g id="icon_profile">
<circle id="Ellipse 138" cx="13.0927" cy="11.455" r="4.90909" stroke="white" stroke-width="2.45455"/>
<path id="Ellipse 144" d="M21.2738 28.6359C21.2738 26.466 20.4118 24.3849 18.8774 22.8505C17.343 21.3161 15.2619 20.4541 13.092 20.4541C10.922 20.4541 8.84094 21.3161 7.30656 22.8505C5.77217 24.3849 4.91016 26.466 4.91016 28.6359" stroke="white" stroke-width="2.45455" stroke-linecap="round"/>
<path id="Ellipse 145" opacity="0.5" d="M31.9096 26.1814C31.9096 24.6624 31.3062 23.2057 30.2321 22.1316C29.158 21.0575 27.7013 20.4541 26.1823 20.4541C25.2072 20.4541 24.2577 20.7028 23.4187 21.165C23.1597 21.3077 22.9112 21.4707 22.6758 21.653" stroke="white" stroke-width="2.45455" stroke-linecap="round"/>
<circle id="Ellipse 141" opacity="0.5" cx="25.7738" cy="14.3177" r="2.86364" stroke="white" stroke-width="2.45455"/>
</g>
</svg>
