<svg width="48" height="48" viewBox="0 0 48 48" fill="none" xmlns="http://www.w3.org/2000/svg">
<g id="icon_phenom_0" opacity="0.2">
<path id="Vector" fill-rule="evenodd" clip-rule="evenodd" d="M37.7012 22.8967C37.3098 22.245 36.3631 22.2511 35.9801 22.9078L32.4081 29.0327C32.2289 29.34 31.8999 29.529 31.5442 29.529L24.3175 29.529C23.5422 29.529 23.0618 30.373 23.4577 31.0396L27.049 37.0865C27.2292 37.3899 27.5559 37.5759 27.9088 37.5759L36.3241 37.5759C36.6794 37.5759 37.008 37.3874 37.1873 37.0807L41.3444 29.9729C41.5289 29.6575 41.5266 29.2665 41.3385 28.9532L37.7012 22.8967Z" fill="white" stroke="white" stroke-width="2"/>
<path id="Vector_2" fill-rule="evenodd" clip-rule="evenodd" d="M20.3872 23.0229C20.7776 22.3563 20.2969 21.5176 19.5243 21.5176L12.3507 21.5176C11.9954 21.5176 11.6668 21.7061 11.4875 22.0127L7.32942 29.1223C7.14548 29.4368 7.14715 29.8264 7.33378 30.1393L11.5194 37.1574C11.6998 37.4599 12.026 37.6452 12.3782 37.6452L19.582 37.6452C20.3565 37.6452 20.837 36.8028 20.4428 36.1362L16.8558 30.0711C16.6709 29.7584 16.67 29.3701 16.8536 29.0566L20.3872 23.0229Z" fill="white" stroke="white" stroke-width="2"/>
<path id="Vector_3" fill-rule="evenodd" clip-rule="evenodd" d="M27.9135 23.3522C28.3038 24.002 29.247 23.9982 29.6321 23.3453L33.2238 17.2553C33.4092 16.9409 33.4086 16.5504 33.2222 16.2366L29.0361 9.18949C28.8559 8.88613 28.5291 8.7002 28.1763 8.7002L19.6995 8.7002C19.3416 8.7002 19.011 8.89146 18.8326 9.20173L15.3362 15.2824C14.9529 15.9491 15.4341 16.7809 16.2031 16.7809L23.4005 16.7809C23.7516 16.7809 24.077 16.965 24.2577 17.266L27.9135 23.3522Z" fill="white" stroke="white" stroke-width="2"/>
</g>
</svg>
