<svg width="36" height="36" viewBox="0 0 36 36" fill="none" xmlns="http://www.w3.org/2000/svg">
<g id="icon_profile">
<circle id="Ellipse 138" cx="13.0927" cy="11.4545" r="4.90909" stroke="white" stroke-width="2.45455"/>
<path id="Ellipse 144" d="M21.2738 28.6364C21.2738 26.4665 20.4118 24.3854 18.8774 22.851C17.343 21.3166 15.2619 20.4546 13.092 20.4546C10.922 20.4546 8.84094 21.3166 7.30656 22.851C5.77217 24.3854 4.91016 26.4665 4.91016 28.6364" stroke="white" stroke-width="2.45455" stroke-linecap="round"/>
<path id="Ellipse 145" opacity="0.5" d="M31.9096 26.1819C31.9096 24.6629 31.3062 23.2061 30.2321 22.1321C29.158 21.058 27.7013 20.4546 26.1823 20.4546C25.2072 20.4546 24.2577 20.7033 23.4187 21.1655C23.1597 21.3081 22.9112 21.4712 22.6758 21.6535" stroke="white" stroke-width="2.45455" stroke-linecap="round"/>
<circle id="Ellipse 141" opacity="0.5" cx="25.7738" cy="14.3182" r="2.86364" stroke="white" stroke-width="2.45455"/>
</g>
</svg>
