<svg width="36" height="37" viewBox="0 0 36 37" fill="none" xmlns="http://www.w3.org/2000/svg">
<g id="icon_profile">
<circle id="Ellipse 138" cx="13.0927" cy="11.955" r="4.90909" stroke="white" stroke-width="2.45455"/>
<path id="Ellipse 144" d="M21.2738 29.1359C21.2738 26.966 20.4118 24.8849 18.8774 23.3505C17.343 21.8161 15.2619 20.9541 13.092 20.9541C10.922 20.9541 8.84094 21.8161 7.30656 23.3505C5.77217 24.8849 4.91016 26.966 4.91016 29.1359" stroke="white" stroke-width="2.45455" stroke-linecap="round"/>
<path id="Ellipse 145" opacity="0.5" d="M31.9096 26.6814C31.9096 25.1624 31.3062 23.7057 30.2321 22.6316C29.158 21.5575 27.7013 20.9541 26.1823 20.9541C25.2072 20.9541 24.2577 21.2028 23.4187 21.665C23.1597 21.8077 22.9112 21.9707 22.6758 22.153" stroke="white" stroke-width="2.45455" stroke-linecap="round"/>
<circle id="Ellipse 141" opacity="0.5" cx="25.7738" cy="14.8177" r="2.86364" stroke="white" stroke-width="2.45455"/>
</g>
</svg>
