<svg width="48" height="48" viewBox="0 0 48 48" fill="none" xmlns="http://www.w3.org/2000/svg">
<g id="icon_teammates">
<circle id="Ellipse 138" cx="18" cy="13" r="7" fill="white"/>
<path id="Ellipse 139" d="M18 22C11.5474 22 6.1143 26.6772 4.49304 33.04C3.94757 35.1807 5.79086 37 8 37H28C30.2091 37 32.0524 35.1807 31.507 33.04C29.8857 26.6772 24.4526 22 18 22Z" fill="white"/>
<circle id="Ellipse 140" cx="33.5" cy="15.5" r="5.5" fill="#8F8F92"/>
<path id="Ellipse 141" d="M43.4195 30.0561C41.992 25.3661 38.0898 22 33.4997 22C31.9178 22 30.4176 22.3998 29.0723 23.1158C29.0723 23.1158 31.3145 24.9909 33.0631 28.0437C34.8116 31.0965 35.4233 34 35.4233 34H39.9998C42.2089 34 44.0627 32.1695 43.4195 30.0561Z" fill="#8F8F92"/>
</g>
</svg>
