<svg width="48" height="48" viewBox="0 0 48 48" fill="none" xmlns="http://www.w3.org/2000/svg">
<g id="icon_chat">
<path id="Union" fill-rule="evenodd" clip-rule="evenodd" d="M16 21.76C16 18.5788 18.6261 16 21.8655 16L34.2017 16C37.4412 16 40.0672 18.5789 40.0672 21.76V31.28C40.0672 33.9624 41.5193 35.8143 42.715 36.8846C42.7393 36.9063 42.7543 36.9202 42.7866 36.9531C42.9043 37.073 43 37.2208 43 37.3952C43 37.7292 42.6886 38 42.3046 38C42.2941 38 42.2836 37.9998 42.2732 37.9994L42.2632 37.9997L42.2473 37.9999L40.0672 38L21.8655 38C18.6261 38 16 35.4211 16 32.24V21.76Z" stroke="#5B6873" stroke-width="3"/>
<path id="Union_2" d="M32 15.4982C32 12.4616 29.4603 10 26.3273 10L13.509 10C10.3761 10 7.83632 12.4616 7.83632 15.4982V24.5855C7.83632 27.1459 6.43203 28.9137 5.27559 29.9353C5.25212 29.956 5.23758 29.9693 5.20635 30.0007C5.09255 30.1152 5 30.2562 5 30.4227C5 30.7415 5.30112 31 5.67257 31C5.68273 31 5.69283 30.9998 5.70289 30.9994L5.71258 30.9997L5.72792 30.9999L7.83632 31L15.6071 31" stroke="#5B6873" stroke-width="3"/>
</g>
</svg>
