<svg width="48" height="49" viewBox="0 0 48 49" fill="none" xmlns="http://www.w3.org/2000/svg">
<g id="icon_teammates">
<circle id="Ellipse 138" cx="18" cy="13.0312" r="7" fill="white"/>
<path id="Ellipse 139" d="M18 22.0312C11.5474 22.0312 6.1143 26.7085 4.49304 33.0712C3.94757 35.212 5.79086 37.0312 8 37.0312H28C30.2091 37.0312 32.0524 35.212 31.507 33.0712C29.8857 26.7085 24.4526 22.0312 18 22.0312Z" fill="white"/>
<circle id="Ellipse 140" cx="33.5" cy="15.5312" r="5.5" fill="#8F8F92"/>
<path id="Ellipse 141" d="M43.4175 30.0874C41.9901 25.3973 38.0879 22.0312 33.4978 22.0312C31.9159 22.0312 30.4157 22.4311 29.0703 23.1471C29.0703 23.1471 31.3126 25.0222 33.0611 28.075C34.8097 31.1278 35.4213 34.0312 35.4213 34.0312H39.9978C42.2069 34.0312 44.0608 32.2008 43.4175 30.0874Z" fill="#8F8F92"/>
</g>
</svg>
