<svg width="24" height="24" viewBox="0 0 24 24" fill="none" xmlns="http://www.w3.org/2000/svg">
<path d="M20 15.5556L17.3333 15.5556C16.8618 15.5556 16.4097 15.7429 16.0763 16.0763C15.7429 16.4097 15.5556 16.8618 15.5556 17.3333L15.5556 20" stroke="white" stroke-width="2" stroke-linecap="round" stroke-linejoin="round"/>
<path d="M15.5556 3.99989L15.5556 6.66656C15.5556 7.13805 15.7429 7.59024 16.0763 7.92364C16.4097 8.25703 16.8618 8.44434 17.3333 8.44434L20 8.44434" stroke="white" stroke-width="2" stroke-linecap="round" stroke-linejoin="round"/>
<path d="M4.00087 8.44434L6.66753 8.44434C7.13903 8.44434 7.59122 8.25703 7.92461 7.92364C8.25801 7.59024 8.44531 7.13805 8.44531 6.66656L8.44531 3.99989" stroke="white" stroke-width="2" stroke-linecap="round" stroke-linejoin="round"/>
<path d="M8.44531 20L8.44531 17.3333C8.44531 16.8618 8.25801 16.4097 7.92461 16.0763C7.59122 15.7429 7.13903 15.5556 6.66754 15.5556L4.00087 15.5556" stroke="white" stroke-width="2" stroke-linecap="round" stroke-linejoin="round"/>
</svg>
