<svg width="24" height="24" viewBox="0 0 24 24" fill="none" xmlns="http://www.w3.org/2000/svg">
<path d="M19.999 15.5556L17.3324 15.5556C16.8609 15.5556 16.4087 15.7429 16.0753 16.0763C15.7419 16.4097 15.5546 16.8618 15.5546 17.3333L15.5546 20" stroke="white" stroke-width="2" stroke-linecap="round" stroke-linejoin="round"/>
<path d="M15.5546 3.99989L15.5546 6.66656C15.5546 7.13805 15.7419 7.59024 16.0753 7.92364C16.4087 8.25703 16.8609 8.44434 17.3324 8.44434L19.999 8.44434" stroke="white" stroke-width="2" stroke-linecap="round" stroke-linejoin="round"/>
<path d="M3.99989 8.44434L6.66656 8.44434C7.13805 8.44434 7.59024 8.25703 7.92364 7.92364C8.25704 7.59024 8.44434 7.13805 8.44434 6.66656L8.44434 3.99989" stroke="white" stroke-width="2" stroke-linecap="round" stroke-linejoin="round"/>
<path d="M8.44434 20L8.44434 17.3333C8.44434 16.8618 8.25704 16.4097 7.92364 16.0763C7.59024 15.7429 7.13805 15.5556 6.66656 15.5556L3.99989 15.5556" stroke="white" stroke-width="2" stroke-linecap="round" stroke-linejoin="round"/>
</svg>
